<svg height="512" viewBox="0 0 32 32" width="512" xmlns="http://www.w3.org/2000/svg"><g id="Layer_2" data-name="Layer 2"><path d="m3 7h2v20.48a3.53 3.53 0 0 0 3.52 3.52h15a3.53 3.53 0 0 0 3.48-3.52v-20.48h2a1 1 0 0 0 0-2h-26a1 1 0 0 0 0 2zm22 0v20.48a1.52 1.52 0 0 1 -1.52 1.52h-15a1.52 1.52 0 0 1 -1.48-1.52v-20.48z"/><path d="m12 3h8a1 1 0 0 0 0-2h-8a1 1 0 0 0 0 2z"/><path d="m12.68 25a1 1 0 0 0 1-1v-12a1 1 0 0 0 -2 0v12a1 1 0 0 0 1 1z"/><path d="m19.32 25a1 1 0 0 0 1-1v-12a1 1 0 0 0 -2 0v12a1 1 0 0 0 1 1z"/></g></svg>